<svg xmlns="http://www.w3.org/2000/svg" viewBox="0 0 128 128">
  <path fill="#fff" d="M64 0C28.7 0 0 28.7 0 64s28.7 64 64 64 64-28.7 64-64S99.3 0 64 0z"/>
  <path fill="#DC382D" d="M121.8 71.6c-3.9 3.6-24.2 10.4-24.2 10.4s3.3 1.4 4.4 2.1c1.1.7.7 1.4-.7 2.1-1.4.7-23.3 9.7-23.3 9.7s6.1 2.9 6.1 4.3c0 1.1-3.3 2.5-9.4 4.3-6.1 1.8-16.1 3.9-16.1 3.9v-6.1l-12.2 3.2s0 6.1-.7 6.4c-.7.4-10.8-2.5-15.4-4.3-4.6-1.8-8.5-3.9-8.5-5 0-1.1 5.7-3.6 5.7-3.6s-24-7.5-27.2-9.6c-3.2-2.1-1.8-3.2 1.4-4.6 3.2-1.4 22.9-9.3 22.9-9.3l-4.6-2.1s24.7-10.7 28.3-12.5c3.6-1.8 8.2-1.8 12.2 0 3.9 1.8 26.5 11.1 26.5 11.1l-4.3 2.1s20.8 6.8 24.4 9.3c3.5 2.4 3.5 3.8-0.3 7.2z"/>
  <path fill="#fff" d="M80.2 58.5L64 65.7l-16.2-7.2L64 51.3z"/>
  <path fill="#7A0C00" d="M64 65.7v21.5l16.2-7.2V58.5z"/>
  <path fill="#AD2115" d="M47.8 58.5V80l16.2 7.2V65.7z"/>
</svg>
